<svg width="25" height="25" viewBox="0 0 25 25" fill="none" xmlns="http://www.w3.org/2000/svg">
<g clip-path="url(#clip0_253_1489)">
<path d="M10.9468 7.35796C10.9468 7.35795 10.9468 7.35795 10.9468 7.35795C10.133 7.05816 9.43077 6.81199 8.82112 6.8105C8.81926 6.81049 8.8174 6.81049 8.81554 6.81049C8.81829 6.81049 8.81797 6.8105 8.81471 6.8106C8.81308 6.81065 8.81071 6.81073 8.80762 6.81083C8.68005 6.81523 7.32544 6.8759 5.98278 7.70982L10.9468 7.35796ZM10.9468 7.35796L10.9604 7.36294C11.1574 7.43556 11.3733 7.5151 11.5805 7.58452L12.706 7.96153L13.3618 8.18125C13.1301 8.2479 12.9112 8.28941 12.706 8.28941C12.1252 8.28941 11.4358 8.03413 10.7486 7.77966C10.0676 7.52752 9.38883 7.27616 8.81993 7.27471C8.76478 7.27617 7.46016 7.32156 6.18483 8.13127C4.54686 9.17184 3.71568 10.9811 3.71568 13.5093C3.71568 15.2952 4.43363 17.8346 5.54497 19.9787L10.9468 7.35796ZM13.0209 6.49281L13.4487 7.0988C13.5893 7.04701 13.7376 6.98835 13.9036 6.92266C13.9829 6.89132 14.0661 6.85838 14.1546 6.82383C14.5677 6.66234 15.061 6.47777 15.6104 6.35587L15.8432 6.8548C16.1464 6.79383 16.4562 6.75725 16.7741 6.7568L13.0209 6.49281ZM13.0209 6.49281L13.377 6.42947C14.0487 6.30998 14.6912 6.01762 15.2539 5.59172M10.7825 6.46798C10.7969 6.56567 10.8193 6.65998 10.8488 6.75034C10.2557 6.532 9.50821 6.27647 8.82249 6.27471L8.81554 6.27469L8.80794 6.27467L8.7934 6.27506C8.66972 6.27834 7.18362 6.33328 5.70031 7.25472L10.7825 6.46798ZM14.044 7.94214C14.1248 7.91065 14.2069 7.87818 14.2902 7.84523C15.0317 7.55178 15.8675 7.22102 16.7789 7.22102H16.8058L14.044 7.94214Z" fill="#314CA3" stroke="#314CA3" stroke-width="2"/>
</g>
<defs>
<clipPath id="clip0_253_1489">
<rect width="25" height="25" fill="white"/>
</clipPath>
</defs>
</svg>
