<svg width="189" height="187" viewBox="0 0 189 187" fill="none" xmlns="http://www.w3.org/2000/svg">
<path opacity="0.83" d="M147.928 56.9036C134.212 42.9219 115.166 34.1846 94.0397 33.9829C72.9131 33.7812 53.6975 42.1681 39.7264 55.8738C25.7553 69.5795 17.0074 88.6359 16.8057 109.762C16.604 130.889 24.9909 150.105 38.6966 164.076C52.4023 178.047 71.4587 186.795 92.5852 186.996C113.712 187.198 132.927 178.811 146.898 165.105C160.88 151.389 169.617 132.343 169.819 111.217C170.021 90.0903 161.634 70.8854 147.928 56.9036Z" fill="url(#paint0_radial_253_1536)" fill-opacity="0.5"/>
<path d="M7.95225 100.155C7.73992 122.258 16.509 142.365 30.8623 156.994C45.2156 171.624 65.1425 180.775 87.2458 180.987L88.0102 100.93L7.95225 100.155Z" fill="#8E9ED6"/>
<path d="M39.4399 100.452C39.3125 113.871 44.6313 126.069 53.3474 134.944C62.0528 143.82 74.1448 149.372 87.5639 149.499L88.031 100.919L39.4399 100.452Z" fill="#7C8FCF"/>
<path d="M26.371 38.0914C10.2872 53.8673 0.23356 75.7794 0 100.08L88.0202 100.919L88.8589 12.8988C64.5474 12.6652 42.4548 22.3155 26.371 38.0914Z" fill="#C6CFEB"/>
<path d="M53.9952 66.2354C45.1199 74.9408 39.5676 87.0329 39.4402 100.452L88.0206 100.919L88.4877 52.3386C75.0686 52.2112 62.8704 57.53 53.9952 66.2354Z" fill="#B3BFE5"/>
<path d="M160.063 30.2354C141.973 11.7948 116.855 0.265409 88.9763 0L88.0102 100.919L188.929 101.885C189.205 74.0066 178.154 48.6654 160.063 30.2354Z" fill="#314CA3"/>
<path d="M122.694 66.8935C113.988 58.0182 101.896 52.4659 88.4773 52.3385L88.0102 100.919L136.591 101.386C136.729 87.9669 131.41 75.7687 122.694 66.8935Z" fill="#273972"/>
<path d="M88.0202 100.919L87.3302 172.898C107.204 173.089 125.273 165.201 138.427 152.302C151.58 139.403 159.808 121.483 159.989 101.609L88.0202 100.919Z" fill="#425EBD"/>
<path opacity="0.08" d="M87.946 108.743L88.0203 100.919L7.96242 100.155C7.94119 102.798 8.04735 105.41 8.27029 107.979L87.946 108.743Z" fill="url(#paint1_linear_253_1536)"/>
<path d="M88.0205 100.919L87.5534 149.499C100.972 149.627 113.171 144.308 122.046 135.602C130.921 126.897 136.474 114.805 136.601 101.386L88.0205 100.919Z" fill="#3B55AA"/>
<path d="M112.873 76.5332C106.631 70.174 97.9679 66.1929 88.3495 66.0973C78.7311 66.0018 69.9938 69.8237 63.6347 76.0555C57.2755 82.2979 53.2943 90.9608 53.1988 100.579C53.1032 110.198 56.9251 118.935 63.1569 125.294C69.3993 131.653 78.0623 135.634 87.6807 135.73C97.2991 135.826 106.036 132.004 112.396 125.772C118.755 119.529 122.736 110.866 122.831 101.248C122.927 91.6297 119.116 82.8924 112.873 76.5332Z" fill="white"/>
<defs>
<radialGradient id="paint0_radial_253_1536" cx="0" cy="0" r="1" gradientUnits="userSpaceOnUse" gradientTransform="translate(93.3083 110.49) rotate(0.544294) scale(76.5149)">
<stop/>
<stop offset="1" stop-opacity="0"/>
</radialGradient>
<linearGradient id="paint1_linear_253_1536" x1="47.8984" y1="109.924" x2="47.9859" y2="100.718" gradientUnits="userSpaceOnUse">
<stop stop-color="white"/>
<stop offset="1"/>
</linearGradient>
</defs>
</svg>
