<svg width="28" height="28" viewBox="0 0 28 28" fill="none" xmlns="http://www.w3.org/2000/svg">
<path d="M14.0001 11.379C14.4962 11.379 14.9014 11.7831 14.9014 12.2792C14.9014 12.7319 15.2693 13.0988 15.722 13.0988C16.1736 13.0988 16.5416 12.7319 16.5416 12.2792C16.5416 11.1671 15.8171 10.2287 14.8197 9.88556V9.42048C14.8197 8.96884 14.4528 8.59987 14.0001 8.59987C13.5464 8.59987 13.1795 8.96884 13.1795 9.42048V9.88556C12.1822 10.2287 11.4598 11.1671 11.4598 12.2792C11.4598 13.6817 12.5987 14.8206 14.0001 14.8206C14.4962 14.8206 14.9014 15.2257 14.9014 15.7218C14.9014 16.2189 14.4962 16.6231 14.0001 16.6231C13.5041 16.6231 13.1 16.2189 13.1 15.7218C13.1 15.2691 12.732 14.9012 12.2793 14.9012C11.8256 14.9012 11.4598 15.2691 11.4598 15.7218C11.4598 16.8339 12.1822 17.7713 13.1795 18.1144V18.5795C13.1795 19.0332 13.5464 19.4011 14.0001 19.4011C14.4528 19.4011 14.8197 19.0332 14.8197 18.5795V18.1144C15.8171 17.7713 16.5416 16.8339 16.5416 15.7218C16.5416 14.3204 15.4016 13.1804 14.0001 13.1804C13.5041 13.1804 13.1 12.7763 13.1 12.2792C13.1 11.7831 13.5041 11.379 14.0001 11.379ZM20.872 18.5547C21.274 18.7666 21.7691 18.6126 21.9799 18.2136C22.662 16.9248 23.0217 15.4676 23.0217 14C23.0217 9.02671 18.9734 4.97947 14.0001 4.97947C9.02583 4.97947 4.97859 9.02671 4.97859 14C4.97859 18.9743 9.02583 23.0215 14.0001 23.0215C15.446 23.0215 16.8826 22.6722 18.1549 22.0097C18.5569 21.802 18.713 21.3049 18.5042 20.9039C18.2954 20.5039 17.8004 20.3447 17.3973 20.5545C16.3442 21.1044 15.2001 21.3824 14.0001 21.3824C9.93016 21.3824 6.61774 18.071 6.61774 14C6.61774 9.93104 9.93016 6.61862 14.0001 6.61862C18.0701 6.61862 21.3825 9.93104 21.3825 14C21.3825 15.202 21.087 16.3936 20.5309 17.4457C20.318 17.8467 20.471 18.3428 20.872 18.5547ZM14.0001 1.69702C11.6241 1.69702 9.31728 2.37707 7.32983 3.66173C6.94847 3.90771 6.83995 4.41517 7.08592 4.7955C7.33293 5.17583 7.83832 5.28332 8.22072 5.03941C9.94049 3.92735 11.9414 3.33824 14.0001 3.33824C19.8798 3.33824 24.6619 8.12135 24.6619 14C24.6619 19.8797 19.8798 24.6628 14.0001 24.6628C8.12047 24.6628 3.33736 19.8797 3.33736 14C3.33736 11.9609 3.9151 9.97755 5.00959 8.26708C5.2535 7.88468 5.14188 7.37722 4.75948 7.13331C4.37811 6.8894 3.87066 7.00102 3.62778 7.38239C2.36482 9.35744 1.69717 11.6477 1.69717 14C1.69717 20.785 7.21511 26.303 14.0001 26.303C20.7841 26.303 26.3031 20.785 26.3031 14C26.3031 7.21703 20.7841 1.69702 14.0001 1.69702Z" fill="#314CA3"/>
</svg>
