<svg width="30" height="30" viewBox="0 0 30 30" fill="none" xmlns="http://www.w3.org/2000/svg">
<path d="M15.8783 15.8783V0C7.37314 0.446115 0.446115 7.37308 0 15.8783H15.8783ZM12.3628 13.2416H10.605V11.4839H12.3628V13.2416ZM7.08955 7.96842H8.84729V9.72616H7.08955V7.96842ZM11.4839 7.60451L12.7267 8.84729L7.96842 13.6056L6.72564 12.3628L11.4839 7.60451Z" fill="#314CA3"/>
<path d="M15.8782 17.636H5.36523C5.79354 23.2371 10.2771 27.7207 15.8782 28.149V17.636H15.8782Z" fill="#314CA3"/>
<path d="M17.6357 3.5155C17.6357 3.70428 17.6357 30.2063 17.6357 29.9988C24.4952 29.5432 29.9985 23.6423 29.9985 16.6694C29.9985 9.6959 24.4968 3.96953 17.6357 3.5155ZM22.909 15.8783C24.3629 15.8783 25.5456 17.061 25.5456 18.5149C25.5456 19.6592 24.8086 20.6256 23.7878 20.9896V22.9092H22.0301V20.9896C21.0093 20.6256 20.2724 19.6592 20.2724 18.5149H22.0301C22.0301 18.9998 22.4241 19.3938 22.909 19.3938C23.3939 19.3938 23.7878 18.9998 23.7878 18.5149C23.7878 18.03 23.3939 17.636 22.909 17.636C21.4551 17.636 20.2724 16.4533 20.2724 14.9994C20.2724 13.8551 21.0093 12.8887 22.0301 12.5247V10.6051H23.7878V12.5247C24.8086 12.8887 25.5456 13.8551 25.5456 14.9994H23.7878C23.7878 14.5145 23.3939 14.1205 22.909 14.1205C22.4241 14.1205 22.0301 14.5145 22.0301 14.9994C22.0301 15.4843 22.4241 15.8783 22.909 15.8783Z" fill="#314CA3"/>
</svg>
