<svg width="631" height="186" viewBox="0 0 631 186" fill="none" xmlns="http://www.w3.org/2000/svg">
<rect width="631" height="1" fill="#F3F3F5"/>
<rect y="37" width="631" height="1" fill="#F3F3F5"/>
<rect y="74" width="631" height="1" fill="#F3F3F5"/>
<rect y="111" width="631" height="1" fill="#F3F3F5"/>
<rect y="148" width="631" height="1" fill="#F3F3F5"/>
<rect y="185" width="631" height="1" fill="#F3F3F5"/>
<rect x="25" y="7" width="15" height="178" rx="7.5" fill="#314CA3"/>
<rect x="52" y="94" width="15" height="91" rx="7.5" fill="#8E9ED6"/>
<rect x="115" y="55" width="15" height="130" rx="7.5" fill="#314CA3"/>
<rect x="142" y="136" width="15" height="49" rx="7.5" fill="#8E9ED6"/>
<rect x="205" y="63" width="15" height="122" rx="7.5" fill="#314CA3"/>
<rect x="232" y="87" width="15" height="98" rx="7.5" fill="#8E9ED6"/>
<rect x="295" y="7" width="15" height="178" rx="7.5" fill="#314CA3"/>
<rect x="322" y="47" width="15" height="138" rx="7.5" fill="#8E9ED6"/>
<rect x="385" y="128" width="15" height="57" rx="7.5" fill="#314CA3"/>
<rect x="412" y="94" width="15" height="91" rx="7.5" fill="#8E9ED6"/>
<rect x="475" y="40" width="15" height="145" rx="7.5" fill="#314CA3"/>
<rect x="502" y="94" width="15" height="91" rx="7.5" fill="#8E9ED6"/>
<rect x="565" y="38" width="15" height="147" rx="7.5" fill="#314CA3"/>
<rect x="592" y="59" width="15" height="126" rx="7.5" fill="#8E9ED6"/>
</svg>
