<svg width="25" height="25" viewBox="0 0 25 25" fill="none" xmlns="http://www.w3.org/2000/svg">
<g clip-path="url(#clip0_513_1023)">
<path d="M4.8112 16.6678C5.06259 16.8174 5.27844 17.0121 5.45069 17.2371H8.70585V14.0806L7.16235 13.1236C6.81858 12.9105 6.71268 12.459 6.9258 12.1153C7.13896 11.7716 7.59024 11.6657 7.93415 11.8787L9.43821 12.8112L10.7492 11.9984C8.13433 8.41283 8.73485 3.33221 12.2155 0.464604C6.48209 -1.45611 0.467662 2.8135 0.440516 8.94559C0.426357 12.1976 2.15769 15.0882 4.8112 16.6678Z" fill="#888EA2"/>
<path d="M5.90918 18.7018H12.8421V20.3618H5.90918V18.7018Z" fill="#888EA2"/>
<path d="M10.1709 14.0806V17.237H13.2902C13.4558 17.0185 13.6625 16.8312 13.9029 16.6896C14.5686 16.2978 15.1797 15.8199 15.7213 15.273C14.1914 14.9285 12.8175 14.1677 11.725 13.1163C11.6833 13.1434 11.3831 13.3291 10.1709 14.0806Z" fill="#888EA2"/>
<path d="M17.5775 0.00231934C13.7372 0.00231934 10.5957 3.1757 10.5957 7.03291C10.5957 10.6611 13.3808 13.6654 16.952 13.9861C21.0847 14.3553 24.5592 11.0793 24.5592 7.03291C24.5592 3.18317 21.4273 0.00231934 17.5775 0.00231934ZM18.3108 10.2072V10.3603C18.3108 10.7647 17.9829 11.0926 17.5784 11.0926C17.174 11.0926 16.8461 10.7647 16.8461 10.3603V10.29C16.5087 10.2308 16.2004 10.1046 15.8109 9.84978C15.4724 9.62836 15.3776 9.1745 15.599 8.83601C15.8204 8.49747 16.2743 8.40265 16.6128 8.62402C16.9698 8.85759 17.0854 8.8758 17.5735 8.87243C18.0446 8.86931 18.2323 8.49947 18.269 8.28147C18.3019 8.08574 18.265 7.82551 17.902 7.69725C17.294 7.48228 16.6704 7.23562 16.2287 6.88917C15.2229 6.10028 15.5265 4.29845 16.8461 3.81895V3.71291C16.8461 3.30845 17.174 2.98055 17.5785 2.98055C17.983 2.98055 18.3108 3.30845 18.3108 3.71291V3.75353C18.6717 3.85537 18.9623 4.03959 19.1619 4.24259C19.4456 4.53095 19.4417 4.99462 19.1533 5.27824C18.865 5.56171 18.4017 5.55795 18.1181 5.27008C18.0773 5.2302 17.8517 5.04208 17.3632 5.18918C17.1682 5.24792 17.1158 5.45015 17.1044 5.51074C17.0806 5.63719 17.1145 5.72243 17.1327 5.73669C17.4089 5.95337 17.9234 6.15125 18.3902 6.31627C20.3204 6.99853 20.0852 9.56572 18.3108 10.2072Z" fill="#888EA2"/>
<path d="M7.08008 22.7052C7.08008 23.9705 8.10947 24.9999 9.37478 24.9999C10.6401 24.9999 11.6695 23.9705 11.6695 22.7052V21.8264H7.08008V22.7052Z" fill="#888EA2"/>
</g>
<defs>
<clipPath id="clip0_513_1023">
<rect width="25" height="25" fill="white"/>
</clipPath>
</defs>
</svg>
