<svg width="419" height="114" viewBox="0 0 419 114" fill="none" xmlns="http://www.w3.org/2000/svg">
<path d="M1.5 112.5C8.06311 106 12.6068 100.5 26.7427 100.5C40.8786 100.5 45.4223 70.0008 65.6165 67.5008C85.8107 65.0009 92.8786 110 113.073 109C133.267 108 130.238 45.0012 150.937 38.5013C171.636 32.0015 179.714 11.0018 199.908 10.0019C220.102 9.00189 224.646 67.5008 244.335 67.5008C264.024 67.5008 269.578 29.5015 287.248 29.5015C304.917 29.5015 314.51 51.0011 335.714 51.5011C356.917 51.5011 357.422 93.5003 376.607 93.5003C395.791 93.5003 403.869 1.00202 417.5 1.50202" stroke="#314CA3" stroke-width="3" stroke-linecap="round" stroke-linejoin="round"/>
</svg>
