<svg width="25" height="25" viewBox="0 0 25 25" fill="none" xmlns="http://www.w3.org/2000/svg">
<path d="M20.2986 13.265C19.833 13.265 19.3728 13.3332 18.9307 13.4675L13.2308 15.0454V6.98364C13.2308 6.57978 13.5593 6.25122 13.9632 6.25122C14.367 6.25122 14.6956 6.57978 14.6956 6.98364V12.6813H15.428C18.255 12.6813 20.555 10.3813 20.555 7.55435C20.555 5.2667 19.0184 3.23696 16.8154 2.61753L7.35512 0V12.556L3.55918 13.6067C3.11093 13.7189 2.68125 13.8971 2.28188 14.1366C0.0593713 15.4691 -0.664652 18.3615 0.667965 20.584C1.19575 21.4642 1.97597 22.1334 2.92431 22.5193C3.48964 22.7494 4.09858 22.8661 4.70669 22.866C5.08427 22.866 5.46162 22.821 5.82783 22.7303L7.35512 22.3077V23.5762L12.4983 25L21.6576 22.4646L21.6768 22.459C22.6185 22.1705 23.4643 21.576 24.0584 20.7849C24.6733 19.9663 24.9983 18.9911 24.9983 17.9648C24.9983 15.3733 22.89 13.265 20.2986 13.265ZM7.35507 16.6719L3.50332 17.7381L3.89414 19.1499L7.35507 18.1918V20.7878L5.46621 21.3107C5.20673 21.3742 4.94599 21.405 4.68862 21.405C3.57246 21.4049 2.52109 20.8262 1.92426 19.8307C1.00703 18.3009 1.50537 16.3101 3.03515 15.3928C3.31269 15.2264 3.61093 15.103 3.92158 15.026L7.35507 14.0758V16.6719ZM11.7659 6.98364V23.2773L8.81997 22.4618V1.9252L16.4218 4.02856C17.9929 4.47031 19.0901 5.92022 19.0901 7.55439C19.0901 9.3229 17.8299 10.8026 16.1604 11.1429V6.98364C16.1604 5.77207 15.1748 4.78638 13.9632 4.78638C12.7516 4.78638 11.7659 5.77207 11.7659 6.98364ZM21.2566 21.0556L13.2308 23.2773V20.6813L21.4939 18.3938L21.1031 16.9821L13.2308 19.1613V16.5653L19.3307 14.8767L19.3498 14.8711C19.6558 14.7774 19.975 14.7299 20.2987 14.7299C22.0824 14.7299 23.5335 16.1811 23.5335 17.9647C23.5335 19.3931 22.6188 20.6341 21.2566 21.0556Z" fill="#314CA3"/>
</svg>
