<svg width="25" height="25" viewBox="0 0 25 25" fill="none" xmlns="http://www.w3.org/2000/svg">
<path d="M24.326 10.8738C24.3254 10.8732 24.3248 10.8727 24.3242 10.8721L14.1262 0.674438C13.6915 0.239563 13.1136 0 12.4989 0C11.8841 0 11.3062 0.239372 10.8713 0.674248L0.67866 10.8667C0.675227 10.8702 0.671794 10.8738 0.668361 10.8772C-0.224279 11.775 -0.222753 13.2317 0.672747 14.1272C1.08187 14.5365 1.62223 14.7736 2.19996 14.7984C2.22342 14.8006 2.24707 14.8018 2.27091 14.8018H2.67737V22.3066C2.67737 23.7917 3.88568 25 5.37112 25H9.36091C9.76527 25 10.0933 24.6721 10.0933 24.2676V18.3838C10.0933 17.7061 10.6446 17.1549 11.3222 17.1549H13.6755C14.3532 17.1549 14.9044 17.7061 14.9044 18.3838V24.2676C14.9044 24.6721 15.2323 25 15.6368 25H19.6266C21.1121 25 22.3204 23.7917 22.3204 22.3066V14.8018H22.6973C23.3118 14.8018 23.8898 14.5624 24.3248 14.1275C25.2213 13.2305 25.2217 11.7714 24.326 10.8738Z" fill="#314CA3"/>
</svg>
