<svg width="25" height="25" viewBox="0 0 25 25" fill="none" xmlns="http://www.w3.org/2000/svg">
<g clip-path="url(#clip0_249_780)">
<path d="M22.0476 17.2021C21.2662 16.733 19.641 15.7564 19.641 13.216C19.641 11.0719 21.0759 9.98985 21.8466 9.40856L21.8627 9.39635C22.1721 9.16306 22.2458 8.72867 22.0311 8.40606C20.3091 5.82074 17.3519 5.74607 16.777 5.7568H16.7735C16.3792 5.75729 16.0029 5.80268 15.6461 5.87443C15.7779 5.76901 15.9058 5.65675 16.0287 5.53766C17.2606 4.34579 17.9376 2.58727 17.8854 0.711608C17.8741 0.315782 17.5501 0 17.1538 0C15.8213 0 14.3063 0.796045 13.1999 2.07772C12.0851 3.36916 11.5644 4.91634 11.7718 6.32199C11.7889 6.43864 11.8338 6.54504 11.8982 6.63631C11.703 6.57091 11.4965 6.49477 11.2925 6.41961C10.5174 6.13408 9.63843 5.81049 8.81554 5.81049C8.79894 5.81049 7.12583 5.82269 5.45517 6.86033C3.99388 7.76863 2.25146 9.65894 2.25146 13.5093C2.25146 15.5119 3.03384 18.3154 4.24475 20.6523C5.0813 22.2668 6.81737 24.9766 9.04688 24.9893H9.0708C10.6966 24.9893 12.0436 24.0292 12.9598 24.0292C14.5245 24.0292 15.0814 25 16.7735 25C18.2905 25 19.7605 23.8477 21.1432 21.5757C21.6508 20.7411 22.0457 19.9158 22.2873 19.3701C22.7485 18.3305 22.7485 18.1919 22.7485 18.0904C22.7485 17.6233 22.3922 17.409 22.0476 17.2021ZM14.3083 3.03434C14.9091 2.33835 15.6661 1.82197 16.3831 1.59404C16.2459 2.73076 15.7657 3.75522 15.0106 4.48538C14.4816 4.99736 13.8466 5.33023 13.2018 5.44493C13.2702 4.64058 13.6548 3.79134 14.3083 3.03434ZM19.8216 20.9295C18.7766 22.6104 17.694 23.5358 16.7735 23.5358C15.507 23.5358 14.915 22.565 12.9598 22.565C11.6405 22.565 10.3818 23.5319 9.05518 23.525C8.02047 23.5192 6.67534 22.1604 5.54497 19.9787C4.43363 17.8346 3.71568 15.2952 3.71568 13.5093C3.71568 10.9811 4.54686 9.17184 6.18483 8.13127C7.46016 7.32156 8.76478 7.27617 8.81993 7.27471C9.963 7.27764 11.5497 8.28941 12.706 8.28941C13.747 8.28941 15.1409 7.22102 16.7789 7.22102H16.8058C17.203 7.21321 19.0787 7.25762 20.3965 8.68767C19.4653 9.472 18.1768 10.8825 18.1768 13.216C18.1768 16.3855 20.1813 17.777 21.1281 18.3573C20.8924 18.9284 20.4429 19.9304 19.8216 20.9295Z" fill="#314CA3"/>
</g>
<defs>
<clipPath id="clip0_249_780">
<rect width="25" height="25" fill="white"/>
</clipPath>
</defs>
</svg>
