<svg width="30" height="30" viewBox="0 0 30 30" fill="none" xmlns="http://www.w3.org/2000/svg">
<path d="M25.1323 0C23.4164 0 22.0254 1.39102 22.0254 3.10693V12.3773H27.3604C27.8457 12.3773 28.2393 11.9838 28.2393 11.4984V3.10693C28.2393 1.39102 26.8482 0 25.1323 0V0Z" fill="#314CA3"/>
<path d="M10.6266 22.0898C10.6266 16.7805 14.9456 12.4076 20.3261 12.4223V3.48551C20.3261 2.14857 20.8293 0.927129 21.656 0H6.1541C3.73184 0 1.76074 1.97109 1.76074 4.39336V29.1053C1.76074 29.8959 2.72795 30.2844 3.2748 29.7129L4.39922 28.5387L5.58691 29.727C5.92969 30.0697 6.48633 30.0697 6.82969 29.727L7.95527 28.602L9.09199 29.7293C9.43477 30.0691 9.9873 30.0691 10.3301 29.7293L11.485 28.5844L12.6404 29.7293C12.9826 30.0691 13.5346 30.0691 13.8773 29.7299L14.1012 29.5084C11.922 27.6864 10.6266 24.9923 10.6266 22.0898ZM8.87086 7.08984H10.6055V5.35523C10.6055 4.86984 10.999 4.47633 11.4844 4.47633C11.9698 4.47633 12.3633 4.86984 12.3633 5.35523V7.08984H14.0979C14.5833 7.08984 14.9768 7.48336 14.9768 7.96875C14.9768 8.45414 14.5833 8.84766 14.0979 8.84766H12.3633V10.5823C12.3633 11.0677 11.9698 11.4612 11.4844 11.4612C10.999 11.4612 10.6055 11.0677 10.6055 10.5823V8.84766H8.87086C8.38547 8.84766 7.99195 8.45414 7.99195 7.96875C7.99195 7.48336 8.38547 7.08984 8.87086 7.08984ZM6.21088 13.2451H12.1289C12.6143 13.2451 13.0078 13.6386 13.0078 14.124C13.0078 14.6094 12.6143 15.0029 12.1289 15.0029H6.21088C5.72549 15.0029 5.33197 14.6094 5.33197 14.124C5.33197 13.6386 5.72549 13.2451 6.21088 13.2451ZM9.1435 22.0283H6.20502C5.71963 22.0283 5.32611 21.6348 5.32611 21.1494C5.32611 20.664 5.71963 20.2705 6.20502 20.2705H9.1435C9.62889 20.2705 10.0224 20.664 10.0224 21.1494C10.0224 21.6348 9.62889 22.0283 9.1435 22.0283ZM9.72949 18.5186H6.20789C5.7225 18.5186 5.32898 18.125 5.32898 17.6396C5.32898 17.1543 5.7225 16.7607 6.20789 16.7607H9.72949C10.2149 16.7607 10.6084 17.1543 10.6084 17.6396C10.6084 18.125 10.2149 18.5186 9.72949 18.5186Z" fill="#314CA3"/>
<path d="M20.2947 14.1797C15.933 14.1797 12.3845 17.7282 12.3845 22.0898C12.3845 26.4515 15.933 30 20.2947 30C24.6563 30 28.2048 26.4515 28.2048 22.0898C28.2048 17.7282 24.6563 14.1797 20.2947 14.1797ZM21.1763 25.4747V25.5583C21.1763 26.0437 20.7828 26.4372 20.2974 26.4372C19.812 26.4372 19.4185 26.0437 19.4185 25.5583V25.5434C19.0248 25.4496 18.6596 25.2945 18.3699 25.105C17.9637 24.8392 17.8499 24.2946 18.1156 23.8883C18.3814 23.482 18.926 23.3682 19.3323 23.634C19.692 23.8693 20.285 23.9587 20.5764 23.8216C20.7652 23.7327 20.9114 23.543 20.9317 23.3603C20.9752 22.9712 20.3655 22.7541 20.0015 22.6103C19.4506 22.3927 18.7649 22.1219 18.3669 21.4033C17.7995 20.3791 18.2965 19.0287 19.4185 18.5669V18.5227C19.4185 18.0373 19.812 17.6437 20.2974 17.6437C20.778 17.6437 21.168 18.0296 21.1756 18.5084C21.492 18.6073 21.7834 18.7655 22.0167 18.9807C22.3736 19.3098 22.396 19.8658 22.0669 20.2226C21.7378 20.5795 21.1817 20.6019 20.825 20.2728C20.6804 20.1394 20.2348 20.0856 20.0411 20.2156C19.9109 20.3031 19.8599 20.4709 19.9045 20.5514C20.0901 20.8865 21.0622 21.0013 21.7978 21.5746C23.3007 22.7457 22.7778 24.8604 21.1763 25.4747Z" fill="#314CA3"/>
</svg>
