<svg width="28" height="28" viewBox="0 0 28 28" fill="none" xmlns="http://www.w3.org/2000/svg">
<path d="M22.995 8.38245C22.9812 6.85217 22.3642 5.38914 21.278 4.31113C20.1918 3.23312 18.7241 2.62719 17.1938 2.62495H8.75001C8.54028 2.62225 8.33656 2.69498 8.17595 2.82989C8.01535 2.96479 7.90855 3.1529 7.87501 3.35995L4.88251 22.1287C4.86381 22.253 4.87211 22.3798 4.90684 22.5006C4.94156 22.6214 5.00191 22.7333 5.08376 22.8287C5.16508 22.9263 5.2667 23.0051 5.38154 23.0595C5.49638 23.1139 5.62169 23.1426 5.74876 23.1437H9.36251L9.17001 24.3599C9.14956 24.486 9.15696 24.615 9.19168 24.7379C9.2264 24.8608 9.28761 24.9746 9.37099 25.0713C9.45438 25.1681 9.55792 25.2454 9.67436 25.2978C9.7908 25.3503 9.91731 25.3766 10.045 25.375H14.1138C14.3222 25.378 14.5249 25.3065 14.6853 25.1733C14.8457 25.0402 14.9533 24.8541 14.9888 24.6487L15.8638 19.3024H18.62C20.3451 19.2955 21.9974 18.6059 23.2156 17.3844C24.4338 16.1629 25.119 14.5088 25.1213 12.7837V12.5387C25.1204 11.7272 24.9272 10.9275 24.5576 10.205C24.1881 9.4826 23.6525 8.85801 22.995 8.38245ZM9.49376 4.37495H17.1938C18.1118 4.37777 19.0017 4.69162 19.7184 5.26529C20.4351 5.83896 20.9362 6.63859 21.14 7.5337C20.7615 7.44492 20.3738 7.40087 19.985 7.40245H12.6875C12.4778 7.39975 12.2741 7.47248 12.1135 7.60739C11.9528 7.74229 11.8461 7.9304 11.8125 8.13745L11.2963 11.375C11.2591 11.607 11.3157 11.8443 11.4535 12.0347C11.5914 12.225 11.7992 12.3528 12.0313 12.39C12.2633 12.4271 12.5006 12.3705 12.691 12.2327C12.8813 12.0948 13.0091 11.887 13.0463 11.655L13.4488 9.13495H20.0025C20.422 9.13715 20.8373 9.21726 21.2275 9.3712C21.0612 10.741 20.4003 12.0028 19.3691 12.9196C18.3379 13.8365 17.0073 14.3451 15.6275 14.3499H11.5675C11.3591 14.3469 11.1564 14.4184 10.996 14.5516C10.8355 14.6847 10.7279 14.8708 10.6925 15.0762L9.62501 21.3937H6.77251L9.49376 4.37495ZM23.3713 12.7837C23.369 14.0447 22.8682 15.2537 21.9782 16.147C21.0881 17.0403 19.881 17.5455 18.62 17.5524H15.12C14.9116 17.5494 14.7089 17.6209 14.5485 17.7541C14.388 17.8872 14.2804 18.0733 14.245 18.2787L13.37 23.625H11.06L11.2525 22.4087L12.3025 16.1175H15.61C17.2435 16.1126 18.8296 15.5677 20.121 14.5674C21.4125 13.5672 22.3368 12.1678 22.75 10.5875C23.1561 11.1569 23.3734 11.8393 23.3713 12.5387V12.7837Z" fill="#314CA3"/>
</svg>
