<svg width="30" height="30" viewBox="0 0 30 30" fill="none" xmlns="http://www.w3.org/2000/svg">
<path d="M29.977 5.22286C29.8494 3.77278 28.0891 3.12714 27.0587 4.15769L25.5869 5.6295C25.2578 5.95856 24.7175 5.96396 24.3825 5.64146C24.0348 5.30683 24.0529 4.73032 24.3946 4.3886L25.8422 2.94099C26.8716 1.91155 26.2287 0.150576 24.7774 0.0227828C20.833 -0.324034 17.7043 3.34435 18.7504 7.23427L0.832214 25.1525C-0.277317 26.2619 -0.277493 28.0579 0.832214 29.1676C1.93923 30.2746 3.74034 30.2746 4.84735 29.1676L22.7609 11.254C26.6044 12.2991 30.3275 9.20325 29.977 5.22286Z" fill="#314CA3"/>
<path d="M1.87498 6.88152C1.91699 6.96437 1.97183 7.04008 2.03752 7.10576L4.58096 9.64914C4.9242 9.99238 5.48066 9.99232 5.82385 9.64914L7.1173 8.35568L9.5875 10.8259L6.94662 13.4667C6.2623 14.1522 6.26289 15.2672 6.94721 15.9521L7.22435 16.2293L16.238 7.21621L15.9609 6.93906C15.273 6.2524 14.1631 6.25141 13.4743 6.93906L10.8304 9.58293L8.36019 7.11273L9.65365 5.81928C9.99689 5.47609 9.99689 4.91957 9.65365 4.57639L7.11027 2.03295C7.04389 1.9665 6.96725 1.91119 6.88334 1.86906L3.63244 0.235937C3.29377 0.0657806 2.88443 0.131816 2.61642 0.399824L0.395135 2.62105C0.126424 2.88977 0.060858 3.30068 0.232596 3.63971L1.87498 6.88152Z" fill="#314CA3"/>
<path d="M21.3823 15.1189L15.126 21.3752L22.311 28.562C24.0394 30.2905 26.8378 30.291 28.5667 28.562C30.2917 26.8371 30.2917 24.0306 28.5667 22.3062L21.3823 15.1189ZM26.5307 26.5242C26.1897 26.8664 25.6318 26.868 25.288 26.5242L20.2996 21.5358C19.9562 21.1924 19.9562 20.6358 20.2996 20.2931C20.6429 19.9497 21.1995 19.9497 21.5423 20.2931L26.5307 25.2815C26.874 25.6249 26.874 26.1809 26.5307 26.5242Z" fill="#314CA3"/>
</svg>
