<svg width="386" height="161" viewBox="0 0 386 161" fill="none" xmlns="http://www.w3.org/2000/svg">
<path d="M6.43311 154L81.6512 69L153.9 107L228.623 6L302.852 83L379.555 44" stroke="#314CA3" stroke-width="3" stroke-linecap="round" stroke-linejoin="round"/>
<path d="M10.3765 155C10.3765 157.5 8.37487 159.5 5.93827 159.5C3.50167 159.5 1.5 157.5 1.5 155C1.5 152.5 3.50167 150.5 5.93827 150.5C8.37487 150.5 10.3765 152.5 10.3765 155Z" fill="white" stroke="#314CA3" stroke-width="3"/>
<path d="M86.5841 70C86.5841 72.4999 84.5824 74.5 82.1458 74.5C79.7092 74.5 77.7075 72.4999 77.7075 70C77.7075 67.5001 79.7092 65.5 82.1458 65.5C84.5824 65.5 86.5841 67.5001 86.5841 70Z" fill="white" stroke="#314CA3" stroke-width="3"/>
<path d="M157.843 106C157.843 108.5 155.842 110.5 153.405 110.5C150.968 110.5 148.967 108.5 148.967 106C148.967 103.5 150.968 101.5 153.405 101.5C155.842 101.5 157.843 103.5 157.843 106Z" fill="white" stroke="#314CA3" stroke-width="3"/>
<path d="M234.051 6C234.051 8.49994 232.05 10.5 229.613 10.5C227.176 10.5 225.175 8.49994 225.175 6C225.175 3.50006 227.176 1.5 229.613 1.5C232.05 1.5 234.051 3.50006 234.051 6Z" fill="white" stroke="#314CA3" stroke-width="3"/>
<path d="M308.28 82C308.28 84.4999 306.278 86.5 303.842 86.5C301.405 86.5 299.403 84.4999 299.403 82C299.403 79.5001 301.405 77.5 303.842 77.5C306.278 77.5 308.28 79.5001 308.28 82Z" fill="white" stroke="#314CA3" stroke-width="3"/>
<path d="M384.487 43C384.487 45.4999 382.486 47.5 380.049 47.5C377.613 47.5 375.611 45.4999 375.611 43C375.611 40.5001 377.613 38.5 380.049 38.5C382.486 38.5 384.487 40.5001 384.487 43Z" fill="white" stroke="#314CA3" stroke-width="3"/>
</svg>
