<svg width="25" height="25" viewBox="0 0 25 25" fill="none" xmlns="http://www.w3.org/2000/svg">
<path d="M4.2085 21.5227C4.613 21.5227 4.94092 21.1948 4.94092 20.7903C4.94092 20.3858 4.613 20.0579 4.2085 20.0579C3.80399 20.0579 3.47607 20.3858 3.47607 20.7903C3.47607 21.1948 3.80399 21.5227 4.2085 21.5227Z" fill="#314CA3"/>
<path d="M19.8332 12.0367C21.1266 11.8464 22.3002 11.256 23.227 10.3291C24.1094 9.44679 24.6902 8.33292 24.9065 7.10797C25.1178 5.91148 24.9692 4.69454 24.4768 3.58868C24.2679 3.11964 23.6525 3.00587 23.2898 3.36871L20.2894 6.369C20.1656 6.49283 19.9641 6.49283 19.8402 6.369L18.6304 5.15929C18.5068 5.03565 18.5068 4.83448 18.6304 4.71085L21.6312 1.71016C21.9943 1.34708 21.8799 0.731939 21.4112 0.523248C20.3053 0.0307672 19.0883 -0.117866 17.8918 0.0934626C16.6668 0.309771 15.5529 0.890533 14.6705 1.77291C13.7437 2.69971 13.1532 3.87325 12.9629 5.16661C12.8058 6.23399 12.9311 7.30191 13.325 8.28854L11.1279 10.0933L6.22151 5.18707L7.0847 4.32393C7.39402 4.01466 7.36483 3.50382 7.02156 3.23194L3.70067 0.601666C3.40921 0.370855 2.99095 0.394976 2.72801 0.657916L0.656427 2.7294C0.393487 2.99229 0.369269 3.41051 0.600177 3.70201L3.23055 7.02276C3.50242 7.36598 4.01292 7.39557 4.32259 7.0859L5.18572 6.22276L9.99061 11.0275L0.971515 18.436C-0.229218 19.3856 -0.332831 21.1724 0.749444 22.2546L2.74456 24.2497C3.82669 25.3318 5.61341 25.2285 6.56341 24.0276L13.9721 15.0089L14.7164 15.7531L13.6459 16.8236C13.3707 17.0986 13.3588 17.5408 13.6185 17.8304L19.1998 24.0528C20.2975 25.2711 22.191 25.3217 23.3517 24.161L24.1602 23.3525C25.3234 22.1894 25.2682 20.2822 24.0389 19.1884C24.0384 19.188 24.0379 19.1876 24.0374 19.1871L17.7863 13.6559C17.4964 13.3994 17.0569 13.4127 16.783 13.6865L15.7521 14.7173L14.9063 13.8716L16.7112 11.6746C17.6978 12.0685 18.7658 12.1938 19.8332 12.0367ZM3.86824 5.46871L2.15345 3.30387L3.30247 2.15489L5.46741 3.86959L3.86824 5.46871ZM17.3316 15.2094L23.0658 20.2832C23.3561 20.5418 23.5223 20.8982 23.5337 21.2868C23.545 21.6758 23.3997 22.0415 23.1245 22.3167L22.316 23.1253C22.042 23.3992 21.6779 23.5448 21.2909 23.5344C20.9037 23.5243 20.5476 23.3603 20.2893 23.0736L15.1722 17.3688L17.3316 15.2094ZM15.9367 10.3097L13.3513 13.4569C13.351 13.4573 13.3506 13.4578 13.3503 13.4582L5.42689 23.1035C5.42352 23.1076 5.42015 23.1118 5.41683 23.116C5.01082 23.633 4.24627 23.6798 3.78035 23.2139L1.78524 21.2189C1.32039 20.7541 1.36502 19.9894 1.88323 19.5825C1.88743 19.5792 1.89158 19.5758 1.89573 19.5724L11.5415 11.6492C11.5418 11.6489 11.542 11.6487 11.5423 11.6485L14.6899 9.063C14.9571 8.84352 15.0344 8.467 14.8752 8.16002C13.9521 6.37935 14.2861 4.22882 15.7063 2.80865C16.5809 1.93409 17.7649 1.46934 18.9622 1.46934C19.2202 1.46934 19.4788 1.49092 19.7351 1.53463L17.5946 3.67506C16.8999 4.36978 16.8999 5.5002 17.5946 6.19498L18.8044 7.4047C19.4993 8.09962 20.6302 8.09972 21.3252 7.4047L23.4653 5.26471C23.7118 6.71012 23.2542 8.23038 22.1912 9.29337C20.771 10.7135 18.6204 11.0474 16.8397 10.1244C16.5327 9.96525 16.1562 10.0425 15.9367 10.3097Z" fill="#314CA3"/>
</svg>
