<?xml version="1.0" standalone="no"?>
<!DOCTYPE svg PUBLIC "-//W3C//DTD SVG 20010904//EN"
 "http://www.w3.org/TR/2001/REC-SVG-20010904/DTD/svg10.dtd">
<svg version="1.0" xmlns="http://www.w3.org/2000/svg"
 width="989.000000pt" height="619.000000pt" viewBox="0 0 989.000000 619.000000"
 preserveAspectRatio="xMidYMid meet">

<g transform="translate(0.000000,619.000000) scale(0.100000,-0.100000)"
fill="#000000" stroke="none">
<path d="M0 3095 l0 -3095 4945 0 4945 0 0 3095 0 3095 -4945 0 -4945 0 0
-3095z m1663 522 c106 -52 169 -169 169 -312 1 -123 -41 -213 -107 -235 -27
-9 -40 -8 -64 5 -56 28 -65 80 -30 160 24 54 21 112 -6 166 -26 49 -65 59
-230 59 l-145 0 0 -384 0 -384 -31 -26 c-51 -44 -120 -30 -145 29 -12 30 -14
104 -12 466 l3 431 34 30 33 30 237 -4 c236 -3 236 -3 294 -31z m742 13 c8 -6
66 -94 131 -196 64 -101 120 -181 125 -179 4 3 24 32 44 65 41 68 58 80 110
80 50 0 85 -36 85 -87 0 -30 -15 -62 -75 -155 l-75 -117 0 -171 0 -172 -29
-29 c-48 -47 -116 -38 -146 21 -12 22 -15 66 -15 191 l0 162 -152 240 c-171
271 -177 287 -118 340 27 24 39 28 67 24 19 -4 41 -11 48 -17z m1420 -15 c11
-14 101 -178 199 -365 98 -187 182 -340 185 -340 3 0 91 158 195 350 107 199
199 359 213 370 14 11 34 20 45 20 28 0 76 -27 88 -49 6 -12 10 -133 10 -319
l0 -299 -25 -27 c-17 -19 -34 -26 -60 -26 -80 0 -98 30 -105 177 l-5 113 -135
-262 c-74 -143 -143 -271 -153 -284 -21 -27 -79 -41 -112 -26 -16 8 -63 89
-166 292 l-144 282 -5 -267 -5 -267 -28 -24 c-49 -42 -119 -27 -143 31 -12 30
-14 104 -12 464 3 413 4 430 23 451 42 47 105 49 140 5z m2207 2 c93 -46 150
-132 169 -259 10 -61 9 -83 -5 -138 -22 -86 -44 -121 -89 -144 -32 -15 -42
-16 -68 -6 -61 26 -73 75 -39 155 25 58 25 108 0 163 -29 64 -59 73 -233 70
l-142 -3 -2 -375 c-2 -257 -6 -382 -14 -397 -27 -51 -124 -55 -157 -5 -15 24
-17 65 -17 468 0 428 1 443 20 464 11 12 29 26 40 31 11 5 124 8 250 6 230 -2
230 -2 287 -30z m1099 6 c28 -29 299 -614 299 -645 0 -16 -5 -38 -11 -50 -22
-42 -63 -48 -323 -48 l-244 0 -50 -102 c-54 -114 -64 -126 -116 -135 -47 -7
-82 16 -97 66 -11 39 -10 42 196 475 163 342 214 440 234 452 32 18 89 11 112
-13z m937 13 c18 -9 66 -76 142 -196 63 -100 117 -183 121 -186 4 -2 26 25 48
61 22 35 50 69 60 75 36 19 86 12 115 -16 45 -45 37 -80 -49 -214 l-75 -117 0
-172 0 -173 -29 -29 c-41 -40 -91 -40 -132 0 l-29 29 0 173 0 172 -144 226
c-79 124 -149 236 -155 249 -17 33 -5 77 31 107 34 28 57 31 96 11z m-4848
-1276 c0 -37 2 -40 19 -30 27 14 56 13 70 -3 6 -7 13 -43 17 -80 l6 -67 -26 0
c-25 0 -26 2 -26 60 0 47 -4 62 -16 67 -25 9 -44 -24 -44 -79 0 -41 -3 -48
-20 -48 -19 0 -20 7 -20 110 0 103 1 110 20 110 17 0 20 -7 20 -40z m1650 -70
c0 -103 -1 -110 -20 -110 -19 0 -20 7 -20 110 0 103 1 110 20 110 19 0 20 -7
20 -110z m-1929 15 c18 -74 20 -73 42 15 10 43 18 56 35 58 21 3 30 -15 48
-106 9 -45 20 -32 35 43 10 51 16 65 31 65 23 0 23 3 -4 -108 -21 -88 -23 -93
-47 -90 -22 3 -27 11 -41 65 -18 75 -25 84 -34 41 -18 -90 -26 -108 -50 -108
-21 0 -26 9 -49 101 l-25 100 21 -3 c18 -2 25 -15 38 -73z m1062 -2 l24 -78
25 75 c23 71 26 75 56 78 l32 3 0 -100 c0 -94 -1 -101 -20 -101 -18 0 -20 7
-21 78 l-1 77 -26 -78 c-22 -65 -30 -77 -46 -75 -16 2 -25 19 -41 70 -11 37
-22 69 -25 72 -3 2 -4 -29 -2 -70 3 -69 2 -74 -17 -74 -20 0 -21 5 -21 100 l0
100 30 0 c28 0 30 -4 53 -77z m1657 53 c0 -8 10 -16 22 -18 30 -4 34 -26 6
-30 -20 -3 -23 -9 -23 -48 0 -39 3 -45 23 -48 32 -5 22 -26 -13 -30 -39 -5
-55 19 -55 80 0 30 -4 48 -12 48 -6 0 -4 7 5 18 10 10 17 24 17 30 0 7 7 12
15 12 8 0 15 -6 15 -14z m-2182 -33 c12 -10 22 -29 24 -43 3 -23 0 -25 -45
-28 -39 -3 -48 -6 -45 -20 3 -13 14 -17 46 -16 34 1 42 -2 40 -15 -2 -11 -16
-17 -44 -19 -52 -4 -83 20 -90 70 -5 30 -2 41 19 62 30 30 66 33 95 9z m100 1
c8 -14 10 -14 21 0 19 22 41 20 41 -4 0 -13 -7 -20 -20 -20 -25 0 -40 -29 -40
-79 0 -34 -3 -41 -20 -41 -18 0 -20 7 -20 73 0 41 3 77 7 80 11 11 21 8 31 -9z
m200 0 c14 -10 22 -25 22 -45 0 -28 -1 -29 -50 -29 -27 0 -50 -4 -50 -9 0 -20
31 -33 66 -28 29 5 35 3 32 -11 -2 -12 -15 -18 -44 -20 -52 -4 -83 20 -90 70
-11 66 59 111 114 72z m517 2 c26 -19 36 -146 12 -146 -9 0 -19 5 -23 11 -4 8
-9 8 -17 0 -15 -15 -60 -14 -75 1 -16 16 -15 53 1 66 6 6 29 13 49 17 27 5 35
11 31 22 -4 11 -15 14 -39 10 -25 -4 -34 -2 -34 8 0 26 64 34 95 11z m103 -2
c8 -14 10 -14 21 0 19 22 41 20 41 -4 0 -13 -7 -20 -20 -20 -25 0 -40 -29 -40
-79 0 -34 -3 -41 -20 -41 -18 0 -20 7 -20 73 0 41 3 77 7 80 11 11 21 8 31 -9z
m137 -46 l20 -57 18 60 c14 48 21 59 38 59 13 0 19 -5 17 -12 -3 -7 -16 -43
-29 -80 -19 -56 -28 -68 -46 -68 -17 0 -26 13 -47 68 -31 80 -32 95 -8 90 11
-2 24 -24 37 -60z m243 35 c6 -9 12 -27 12 -40 0 -21 -4 -23 -50 -23 -27 0
-50 -4 -50 -9 0 -18 31 -33 60 -29 24 4 30 1 28 -11 -5 -27 -76 -27 -104 0
-55 52 -11 149 61 135 16 -4 36 -14 43 -23z m247 17 c3 -6 15 -5 30 2 19 8 32
8 52 -1 18 -8 29 -9 37 -1 15 15 52 12 70 -6 11 -11 16 -35 16 -80 0 -57 -2
-64 -20 -64 -18 0 -20 7 -20 54 0 35 -5 58 -15 66 -26 22 -45 -5 -45 -66 0
-47 -2 -54 -20 -54 -18 0 -20 7 -20 60 0 47 -4 62 -16 67 -25 9 -44 -24 -44
-79 0 -41 -3 -48 -20 -48 -18 0 -20 7 -20 80 0 63 3 80 14 80 8 0 17 -4 21
-10z m360 -15 c14 -13 25 -33 25 -45 0 -17 -6 -20 -51 -20 -43 0 -50 -3 -47
-17 3 -14 13 -18 46 -17 34 1 42 -2 40 -15 -5 -26 -82 -27 -107 -2 -24 24 -29
88 -8 113 27 34 70 36 102 3z m170 0 c14 -13 25 -33 25 -45 0 -17 -6 -20 -50
-20 -37 0 -50 -4 -50 -14 0 -19 34 -30 67 -22 20 6 24 3 21 -11 -5 -28 -81
-30 -107 -4 -24 24 -29 88 -8 113 27 34 70 36 102 3z m272 19 c33 -9 18 -34
-17 -28 -44 9 -45 -13 0 -36 43 -22 51 -47 24 -75 -22 -22 -98 -17 -102 7 -3
14 3 16 31 11 49 -8 53 10 9 38 -42 27 -50 49 -27 73 17 17 44 20 82 10z m165
-5 c2 -7 12 -7 32 2 22 10 32 10 47 1 14 -9 25 -9 39 -2 56 30 90 -5 90 -92 0
-51 -2 -58 -20 -58 -18 0 -20 7 -20 54 0 35 -5 58 -15 66 -26 22 -45 -5 -45
-66 0 -47 -2 -54 -20 -54 -18 0 -20 7 -20 54 0 61 -19 88 -45 66 -10 -8 -15
-31 -15 -66 0 -47 -2 -54 -20 -54 -18 0 -20 7 -20 80 0 62 3 80 14 80 8 0 16
-5 18 -11z m351 0 c31 -16 37 -28 37 -71 0 -46 -28 -78 -68 -78 -59 0 -91 52
-70 112 15 42 60 58 101 37z m111 2 c4 -5 19 -4 36 2 50 19 64 2 68 -82 3 -66
1 -71 -18 -71 -18 0 -20 6 -20 60 0 47 -4 62 -16 67 -25 9 -44 -24 -44 -79 0
-41 -3 -48 -20 -48 -18 0 -20 7 -20 80 0 63 3 80 14 80 8 0 17 -4 20 -9z m264
-7 c14 -10 22 -25 22 -45 0 -28 -2 -29 -46 -29 -38 0 -45 -3 -42 -17 3 -14 13
-18 46 -17 34 1 42 -2 40 -15 -2 -11 -16 -17 -44 -19 -52 -4 -83 20 -90 70
-11 66 59 111 114 72z m103 -43 l16 -53 19 53 c15 41 25 55 42 57 12 2 22 2
22 -1 0 -2 -18 -48 -40 -103 -40 -99 -58 -124 -92 -124 -24 0 -23 27 1 35 31
10 33 37 8 96 -41 92 -42 101 -16 97 19 -2 27 -14 40 -57z"/>
<path d="M6998 3190 l-66 -140 134 0 c74 0 134 2 134 4 0 5 -127 267 -132 271
-2 2 -34 -59 -70 -135z"/>
<path d="M3417 2303 c-15 -14 -6 -23 23 -23 22 0 28 4 24 15 -6 15 -35 20 -47
8z"/>
<path d="M3710 2295 c-11 -13 -7 -15 25 -15 32 0 36 2 25 15 -7 8 -18 15 -25
15 -7 0 -18 -7 -25 -15z"/>
<path d="M4224 2239 c-3 -6 -1 -16 5 -22 13 -13 42 0 49 21 5 15 -44 16 -54 1z"/>
<path d="M4697 2296 c-5 -12 1 -16 24 -16 20 0 29 4 27 13 -7 18 -45 20 -51 3z"/>
<path d="M5317 2304 c-15 -15 -6 -24 24 -24 20 0 29 4 27 13 -5 14 -40 21 -51
11z"/>
<path d="M5487 2304 c-15 -15 -6 -24 24 -24 20 0 29 4 27 13 -5 14 -40 21 -51
11z"/>
<path d="M6293 2303 c-19 -7 -17 -82 2 -89 36 -14 62 55 33 84 -13 13 -16 13
-35 5z"/>
<path d="M6657 2303 c-15 -14 -6 -23 24 -23 27 0 30 2 19 15 -13 16 -32 19
-43 8z"/>
</g>
</svg>
